<svg width="16" height="13" viewBox="0 0 16 13" fill="none" xmlns="http://www.w3.org/2000/svg">
<path d="M3 3.5C3 3.36739 3.05268 3.24021 3.14645 3.14645C3.24021 3.05268 3.36739 3 3.5 3H10.5C10.6326 3 10.7598 3.05268 10.8536 3.14645C10.9473 3.24021 11 3.36739 11 3.5C11 3.63261 10.9473 3.75979 10.8536 3.85355C10.7598 3.94732 10.6326 4 10.5 4H3.5C3.36739 4 3.24021 3.94732 3.14645 3.85355C3.05268 3.75979 3 3.63261 3 3.5Z" fill="#FCDD00"/>
<path d="M8.5 6C8.36739 6 8.24021 6.05268 8.14645 6.14645C8.05268 6.24021 8 6.36739 8 6.5C8 6.63261 8.05268 6.75979 8.14645 6.85355C8.24021 6.94732 8.36739 7 8.5 7H10.5C10.6326 7 10.7598 6.94732 10.8536 6.85355C10.9473 6.75979 11 6.63261 11 6.5C11 6.36739 10.9473 6.24021 10.8536 6.14645C10.7598 6.05268 10.6326 6 10.5 6H8.5Z" fill="#FCDD00"/>
<path d="M8 9.5C8 9.36739 8.05268 9.24021 8.14645 9.14645C8.24021 9.05268 8.36739 9 8.5 9H10.5C10.6326 9 10.7598 9.05268 10.8536 9.14645C10.9473 9.24021 11 9.36739 11 9.5C11 9.63261 10.9473 9.75979 10.8536 9.85355C10.7598 9.94732 10.6326 10 10.5 10H8.5C8.36739 10 8.24021 9.94732 8.14645 9.85355C8.05268 9.75979 8 9.63261 8 9.5Z" fill="#FCDD00"/>
<path d="M3.5 6C3.36739 6 3.24021 6.05268 3.14645 6.14645C3.05268 6.24021 3 6.36739 3 6.5V9.5C3 9.63261 3.05268 9.75979 3.14645 9.85355C3.24021 9.94732 3.36739 10 3.5 10H6.5C6.63261 10 6.75979 9.94732 6.85355 9.85355C6.94732 9.75979 7 9.63261 7 9.5V6.5C7 6.36739 6.94732 6.24021 6.85355 6.14645C6.75979 6.05268 6.63261 6 6.5 6H3.5ZM4 9V7H6V9H4Z" fill="#FCDD00"/>
<path d="M2.28882e-05 2C2.28882e-05 1.46957 0.210736 0.960859 0.585809 0.585786C0.960882 0.210714 1.46959 0 2.00002 0H12C12.5305 0 13.0392 0.210714 13.4142 0.585786C13.7893 0.960859 14 1.46957 14 2V3C14.5305 3 15.0392 3.21071 15.4142 3.58579C15.7893 3.96086 16 4.46957 16 5V10.5C16 11.163 15.7366 11.7989 15.2678 12.2678C14.7989 12.7366 14.1631 13 13.5 13H2.50002C1.83698 13 1.2011 12.7366 0.732256 12.2678C0.263415 11.7989 2.28882e-05 11.163 2.28882e-05 10.5V2ZM13 2C13 1.73478 12.8947 1.48043 12.7071 1.29289C12.5196 1.10536 12.2652 1 12 1H2.00002C1.73481 1 1.48045 1.10536 1.29292 1.29289C1.10538 1.48043 1.00002 1.73478 1.00002 2V10.5C1.00002 10.8978 1.15806 11.2794 1.43936 11.5607C1.72067 11.842 2.1022 12 2.50002 12H13.5C13.8978 12 14.2794 11.842 14.5607 11.5607C14.842 11.2794 15 10.8978 15 10.5V5C15 4.73478 14.8947 4.48043 14.7071 4.29289C14.5196 4.10536 14.2652 4 14 4V10.5C14 10.6326 13.9473 10.7598 13.8536 10.8536C13.7598 10.9473 13.6326 11 13.5 11C13.3674 11 13.2402 10.9473 13.1465 10.8536C13.0527 10.7598 13 10.6326 13 10.5V2Z" fill="#FCDD00"/>
</svg>
