<svg width="18" height="17" viewBox="0 0 18 17" fill="none" xmlns="http://www.w3.org/2000/svg">
<path d="M9 8.00001C9.46024 8.00001 9.83333 7.62691 9.83333 7.16668C9.83333 6.70644 9.46024 6.33334 9 6.33334C8.53976 6.33334 8.16667 6.70644 8.16667 7.16668C8.16667 7.62691 8.53976 8.00001 9 8.00001Z" fill="#717171"/>
<path d="M12.3333 8.00001C12.7936 8.00001 13.1667 7.62691 13.1667 7.16668C13.1667 6.70644 12.7936 6.33334 12.3333 6.33334C11.8731 6.33334 11.5 6.70644 11.5 7.16668C11.5 7.62691 11.8731 8.00001 12.3333 8.00001Z" fill="#717171"/>
<path d="M5.66667 8.00001C6.12691 8.00001 6.5 7.62691 6.5 7.16668C6.5 6.70644 6.12691 6.33334 5.66667 6.33334C5.20643 6.33334 4.83334 6.70644 4.83334 7.16668C4.83334 7.62691 5.20643 8.00001 5.66667 8.00001Z" fill="#717171"/>
<path d="M14.8333 0.5H3.16667C2.50363 0.5 1.86774 0.763392 1.3989 1.23223C0.93006 1.70107 0.666668 2.33696 0.666668 3V15.5C0.666922 15.6477 0.706409 15.7926 0.781085 15.92C0.855761 16.0474 0.962946 16.1526 1.09167 16.225C1.21621 16.2956 1.35684 16.3329 1.5 16.3333C1.64957 16.3333 1.79637 16.293 1.925 16.2167L5.66667 13.95C5.80497 13.8677 5.96416 13.8271 6.125 13.8333H14.8333C15.4964 13.8333 16.1323 13.5699 16.6011 13.1011C17.0699 12.6323 17.3333 11.9964 17.3333 11.3333V3C17.3333 2.33696 17.0699 1.70107 16.6011 1.23223C16.1323 0.763392 15.4964 0.5 14.8333 0.5ZM15.6667 11.3333C15.6667 11.5543 15.5789 11.7663 15.4226 11.9226C15.2663 12.0789 15.0543 12.1667 14.8333 12.1667H6.125C5.66985 12.1663 5.22324 12.2902 4.83333 12.525L2.33333 14.025V3C2.33333 2.77899 2.42113 2.56702 2.57741 2.41074C2.73369 2.25446 2.94565 2.16667 3.16667 2.16667H14.8333C15.0543 2.16667 15.2663 2.25446 15.4226 2.41074C15.5789 2.56702 15.6667 2.77899 15.6667 3V11.3333Z" fill="#717171"/>
</svg>
