<svg width="18" height="17" viewBox="0 0 18 17" fill="none" xmlns="http://www.w3.org/2000/svg">
<path d="M17.1201 15.5614C15.9539 13.5528 14.0862 12.0463 11.8763 11.3316C12.935 10.7016 13.7576 9.74156 14.2178 8.59882C14.678 7.45607 14.7503 6.19385 14.4237 5.00602C14.097 3.8182 13.3894 2.77045 12.4096 2.02372C11.4298 1.27698 10.232 0.872559 9.00004 0.872559C7.76811 0.872559 6.57025 1.27698 5.59044 2.02372C4.61062 2.77045 3.90305 3.8182 3.57639 5.00602C3.24973 6.19385 3.32205 7.45607 3.78224 8.59882C4.24244 9.74156 5.06506 10.7016 6.12375 11.3316C3.91388 12.0463 2.04625 13.5527 0.879997 15.5612C0.838892 15.6323 0.812183 15.7107 0.801396 15.7921C0.790609 15.8735 0.795954 15.9562 0.817126 16.0355C0.838299 16.1148 0.874884 16.1891 0.924793 16.2543C0.974702 16.3195 1.03696 16.3742 1.108 16.4153C1.17905 16.4564 1.2575 16.4831 1.33887 16.4939C1.42024 16.5047 1.50293 16.4993 1.58224 16.4781C1.66154 16.457 1.7359 16.4204 1.80106 16.3705C1.86623 16.3206 1.92092 16.2583 1.96203 16.1873C2.67554 14.9521 3.70154 13.9265 4.93695 13.2134C6.17237 12.5003 7.57369 12.125 9.00012 12.125C10.4266 12.125 11.8279 12.5004 13.0633 13.2135C14.2987 13.9266 15.3246 14.9522 16.0381 16.1874C16.0792 16.2585 16.1339 16.3207 16.1991 16.3706C16.2642 16.4205 16.3386 16.4571 16.4179 16.4783C16.4972 16.4994 16.5799 16.5048 16.6613 16.494C16.7426 16.4832 16.8211 16.4565 16.8921 16.4154C16.9631 16.3743 17.0254 16.3196 17.0753 16.2544C17.1252 16.1893 17.1618 16.1149 17.183 16.0356C17.2041 15.9563 17.2095 15.8736 17.1987 15.7923C17.1879 15.7109 17.1612 15.6324 17.1201 15.5614ZM4.625 6.5C4.625 5.63471 4.88159 4.78884 5.36232 4.06938C5.84305 3.34991 6.52633 2.78916 7.32576 2.45803C8.12518 2.12689 9.00485 2.04025 9.85352 2.20906C10.7022 2.37787 11.4817 2.79455 12.0936 3.40641C12.7054 4.01826 13.1221 4.79781 13.2909 5.64648C13.4597 6.49515 13.3731 7.37481 13.042 8.17424C12.7108 8.97367 12.1501 9.65695 11.4306 10.1377C10.7112 10.6184 9.86529 10.875 9 10.875C7.84008 10.8737 6.72805 10.4123 5.90787 9.59213C5.08768 8.77194 4.62632 7.65992 4.625 6.5Z" fill="#717171"/>
</svg>
