<svg width="17" height="17" viewBox="0 0 17 17" fill="none" xmlns="http://www.w3.org/2000/svg">
<path d="M7.49297 3.90103C7.13497 3.97103 6.74297 4.20303 6.43497 4.74703C6.40254 4.80415 6.35917 4.85433 6.30734 4.89469C6.25551 4.93506 6.19624 4.96482 6.13291 4.98228C6.06958 4.99973 6.00343 5.00455 5.93824 4.99644C5.87305 4.98833 5.8101 4.96747 5.75297 4.93503C5.69585 4.90259 5.64567 4.85922 5.60531 4.80739C5.56495 4.75557 5.53519 4.69629 5.51773 4.63297C5.50027 4.56964 5.49546 4.50349 5.50356 4.4383C5.51167 4.37311 5.53254 4.31015 5.56497 4.25303C6.00597 3.47703 6.63297 3.05003 7.30097 2.92003C7.92253 2.80264 8.56536 2.93214 9.09297 3.28103C9.57697 3.60103 9.96797 4.12403 9.97997 4.75103C9.99297 5.40603 9.59497 5.99703 8.86097 6.43103C8.36297 6.72503 8.16897 6.92503 8.08597 7.05803C8.01597 7.17003 7.99997 7.27203 7.99997 7.50003C7.99997 7.63264 7.9473 7.75981 7.85353 7.85358C7.75976 7.94735 7.63258 8.00003 7.49997 8.00003C7.36737 8.00003 7.24019 7.94735 7.14642 7.85358C7.05265 7.75981 6.99997 7.63264 6.99997 7.50003C6.99997 7.22803 7.01398 6.89003 7.23698 6.53003C7.44698 6.19303 7.80597 5.89303 8.35197 5.57003C8.88697 5.25303 8.98397 4.95203 8.98097 4.77203C8.97597 4.56503 8.83897 4.31203 8.54097 4.11503C8.23244 3.91091 7.85684 3.83421 7.49297 3.90103Z" fill="#FCDD00"/>
<path d="M7.74998 10.5C7.94889 10.5 8.13965 10.421 8.28031 10.2803C8.42096 10.1397 8.49998 9.94893 8.49998 9.75002C8.49998 9.5511 8.42096 9.36034 8.28031 9.21969C8.13965 9.07903 7.94889 9.00002 7.74998 9.00002C7.55106 9.00002 7.3603 9.07903 7.21965 9.21969C7.079 9.36034 6.99998 9.5511 6.99998 9.75002C6.99998 9.94893 7.079 10.1397 7.21965 10.2803C7.3603 10.421 7.55106 10.5 7.74998 10.5Z" fill="#FCDD00"/>
<path d="M7.50001 1.54357e-05C6.3665 -0.000249024 5.25262 0.295911 4.26893 0.859104C3.28523 1.4223 2.46591 2.23294 1.89228 3.21059C1.31865 4.18824 1.01065 5.2989 0.998848 6.43235C0.987049 7.5658 1.27186 8.68264 1.82501 9.67202L1.03001 11.754C0.963842 11.9271 0.947056 12.1151 0.98153 12.2972C1.016 12.4792 1.10038 12.6481 1.22524 12.785C1.35011 12.9219 1.51056 13.0214 1.68868 13.0725C1.8668 13.1235 2.0556 13.124 2.23401 13.074L4.72101 12.377C5.602 12.7933 6.5653 13.0061 7.53966 12.9999C8.51402 12.9936 9.47451 12.7684 10.3501 12.3408C11.2256 11.9133 11.9939 11.2943 12.5979 10.5298C13.202 9.76527 13.6265 8.87471 13.84 7.924C14.0534 6.97329 14.0504 5.98676 13.8312 5.03737C13.6119 4.08798 13.182 3.20003 12.5733 2.4392C11.9645 1.67838 11.1925 1.06414 10.3144 0.641929C9.43623 0.219719 8.47439 0.000338516 7.50001 1.54357e-05ZM2.00001 6.50002C2.00046 5.30145 2.39242 4.13583 3.11626 3.18051C3.84009 2.22519 4.85618 1.53248 6.00993 1.20775C7.16367 0.883031 8.39191 0.944082 9.50777 1.38162C10.6236 1.81915 11.566 2.60922 12.1915 3.6316C12.8171 4.65399 13.0915 5.85273 12.9731 7.04544C12.8547 8.23815 12.3499 9.35952 11.5356 10.239C10.7212 11.1184 9.64186 11.7077 8.46176 11.9173C7.28165 12.1269 6.06539 11.9453 4.99801 11.4L4.82401 11.31L1.96401 12.111L2.93301 9.57502L2.80501 9.36502C2.27716 8.50272 1.99852 7.51104 2.00001 6.50002Z" fill="#FCDD00"/>
<path d="M10.4631 16C9.52738 16.0011 8.60257 15.7996 7.7521 15.4095C6.90163 15.0194 6.14565 14.4499 5.53605 13.74C6.09905 13.893 6.68905 13.981 7.29605 13.997C8.22236 14.6513 9.32899 15.0018 10.4631 15C11.3651 15 12.2151 14.783 12.9651 14.4L13.1391 14.31L15.9991 15.111L15.0301 12.575L15.1581 12.365C15.6681 11.531 15.9631 10.551 15.9631 9.50003C15.9646 8.38958 15.6284 7.30492 14.9991 6.39003C14.9909 5.79513 14.912 5.20331 14.7641 4.62703C15.4559 5.23627 16.01 5.98605 16.3892 6.82634C16.7684 7.66664 16.964 8.57814 16.9631 9.50003C16.9631 10.651 16.6631 11.733 16.1371 12.672L16.9331 14.754C16.9991 14.927 17.0159 15.1149 16.9814 15.2969C16.947 15.4788 16.8627 15.6476 16.738 15.7844C16.6133 15.9213 16.453 16.0208 16.275 16.072C16.0971 16.1231 15.9084 16.1238 15.7301 16.074L13.2421 15.377C12.3991 15.777 11.4561 16 10.4621 16H10.4631Z" fill="#FCDD00"/>
</svg>
